<svg width="13" height="14" viewBox="0 0 13 14" fill="none" xmlns="http://www.w3.org/2000/svg">
<path d="M7.11027 3.42335H5.81749V6.0089H3.23194V7.30167H5.81749V9.88722H7.11027V7.30167H9.69582V6.0089H7.11027V3.42335ZM6.46388 0.191406C2.89582 0.191406 0 3.08722 0 6.65528C0 10.2233 2.89582 13.1192 6.46388 13.1192C10.0319 13.1192 12.9278 10.2233 12.9278 6.65528C12.9278 3.08722 10.0319 0.191406 6.46388 0.191406ZM6.46388 11.8264C3.61331 11.8264 1.29278 9.50585 1.29278 6.65528C1.29278 3.80471 3.61331 1.48418 6.46388 1.48418C9.31445 1.48418 11.635 3.80471 11.635 6.65528C11.635 9.50585 9.31445 11.8264 6.46388 11.8264Z" fill="#376AF5"/>
</svg>
