<svg width="63" height="21" viewBox="0 0 63 21" fill="none" xmlns="http://www.w3.org/2000/svg">
<g clip-path="url(#clip0)">
<path d="M12.6529 8.73649H15.7813L16.3375 7.46194V8.73649H19.8135H19.9989H26.4644H27.6694H30.1027V6.16421H30.4734H30.6588H30.821L30.9601 6.18738L31.076 6.21056L31.1687 6.23373L31.2613 6.2569L31.3309 6.28008L31.3772 6.30325L31.4004 6.32642L31.4236 6.3496L31.4467 6.37277H31.4699V6.39595L31.4931 6.41912L31.5163 6.46547L31.5394 6.51181L31.5626 6.58134L31.5858 6.67403L31.609 6.76673L31.6321 6.88259L31.6553 7.04481L31.6785 7.20703L31.7016 7.36924L31.7248 7.50829L31.748 7.64733L31.7712 7.78637L31.7943 7.92541L32.0493 8.69014H34.6215H36.0815H38.0512V7.6705L38.0976 7.71685L38.3989 7.99493L38.7465 8.22667L39.1172 8.41206L39.5112 8.5511L39.9051 8.6438L40.0442 8.66697L40.1832 8.69014L40.3223 8.71332H40.4613H40.6235H40.7857H40.948H41.1334H44.5399L45.2119 7.16068H46.556L47.228 8.71332H49.4064H51.0981H52.7897V6.48864L54.0643 8.71332H57.4476V0H54.0643V2.17833L52.8824 0H49.4295V4.75061L47.4134 0H44.5631H44.4008H41.226H40.948L40.6699 0.0231737L40.3918 0.0463474L40.1369 0.0926949L39.882 0.139042L39.6271 0.208563L39.3953 0.278085L39.1636 0.370779L38.9318 0.486648L38.7233 0.602517L38.5147 0.741559L38.3293 0.903775L38.1439 1.06599L38.0976 1.11234V0H34.6447V0.880601L34.552 0.787906L34.413 0.672038L34.2508 0.579343L34.0885 0.486648L33.8105 0.370779L33.5092 0.278085L33.1848 0.208563L32.8603 0.139042L32.5127 0.0926949L32.1419 0.0695212L31.748 0.0463474H31.3309H26.4876H19.9989H15.7581L14.2518 3.68462L12.8151 0.0463474H8.5511V4.21762L6.76673 0.0463474H3.75414L0 8.75967H1.73803H3.89318L4.56522 7.20703H5.9093L6.58134 8.75967H8.52793H10.4513H12.1894V7.74002L12.6529 8.73649Z" fill="#09B7E7"/>
<path d="M62.9632 17.9828V12.1198H57.4015L57.1234 12.1662L56.8453 12.2357L56.5672 12.3284L56.3123 12.4442L56.0574 12.6065L55.8952 12.7223V12.0966H50.6811L50.403 12.143L50.1249 12.2125L49.8468 12.3052L49.5919 12.4211L49.337 12.5833L49.1516 12.7223V12.0735H41.4116V12.7919L41.2726 12.676L41.1103 12.5601L40.8554 12.4211L40.5773 12.3052L40.2761 12.2125L39.9748 12.143L39.6504 12.0966L39.3028 12.0735L38.932 12.0503H34.1072V13.0931L33.9219 12.9077L33.7133 12.7223L33.4815 12.5601L33.2498 12.4211L32.9949 12.3052L32.7168 12.2125L32.5314 12.1662L32.346 12.143L32.1606 12.1198L31.9521 12.0966L31.7435 12.0735H25.2085L23.9572 13.6493L22.8216 12.0735H13.8766V20.7868H22.6826L23.9572 19.0951L25.2781 20.7868H29.8433V18.4231H31.9521L32.1143 18.3999L32.2765 18.3767L32.4387 18.3535L32.5778 18.3304L32.7168 18.284L32.8559 18.2377L32.9949 18.1913L33.1339 18.145L33.273 18.0755L33.412 18.0059L33.5511 17.9364L33.6669 17.8437L33.7828 17.751L33.9219 17.6352L34.0609 17.5193L34.1536 17.4266V20.81H37.6296V18.2377H38.1626L38.2785 18.2609L38.3944 18.284L38.4871 18.3072L38.5566 18.3304L38.6029 18.3535H38.6261L38.6493 18.3767H38.6725V18.3999V18.4231L38.6956 18.4462L38.7188 18.4926L38.742 18.5621L38.7652 18.6316L38.7883 18.7243L38.8115 18.8402L38.8347 18.9561L38.8579 19.1183L38.881 19.2805L38.9042 19.4427L38.9274 19.5818L38.9505 19.7208L38.9737 19.8598L38.9969 19.9757L39.2286 20.7636H53.6659L53.8049 20.7404L53.9439 20.7173L54.1062 20.6941L54.3842 20.6246L54.6623 20.5319L54.9172 20.416L55.1722 20.2538L55.2417 20.1843V20.7636H60.3631L60.5021 20.7404L60.6411 20.7173L60.7802 20.6941L61.0583 20.6246L61.3364 20.5319L61.5913 20.416L61.8462 20.2538C61.8462 20.2538 61.8694 20.2306 62.0779 20.0684C62.4765 19.8135 62.9632 19.211 62.9632 17.9828Z" fill="#09B7E7"/>
<path d="M41.4576 3.17529H43.103L42.0833 5.56218H41.504H41.3186H41.1796L41.0637 5.53901L40.971 5.51584L40.9015 5.49266L40.8551 5.46949L40.832 5.44632L40.8088 5.42314L40.7856 5.39997L40.7393 5.33045L40.6929 5.21458L40.6466 5.05236L40.6234 4.8438L40.6002 4.58889V4.28763V4.05589L40.6234 3.8705L40.6466 3.70829L40.6697 3.56925L40.6929 3.47655L40.7161 3.4302L40.7393 3.40703L40.7624 3.38386L40.8088 3.36068L40.8551 3.33751L40.9247 3.31434L41.0173 3.29116L41.1332 3.26799L41.2723 3.24481L41.4576 3.17529Z" fill="white"/>
<path d="M56.2659 17.6355V17.6818H56.3586L56.2659 17.6355Z" fill="white"/>
<path d="M21.0419 15.7581V17.1021L21.598 16.4301L21.0419 15.7581Z" fill="white"/>
<path d="M49.4064 17.5426L49.1747 17.3804L49.0357 17.2645L48.9198 17.1486L48.8039 17.0328L48.7112 16.9169L48.6185 16.801V17.7048H49.615L49.4064 17.5426Z" fill="white"/>
<path d="M34.4827 6.72069C34.4731 6.49425 34.442 6.26924 34.39 6.04866C34.3356 5.88778 34.2657 5.73257 34.1814 5.58518C34.0718 5.39924 33.9212 5.24074 33.7411 5.12171C33.5285 4.98195 33.2933 4.88003 33.0459 4.82045L33.2776 4.75092C33.5304 4.65036 33.7652 4.5095 33.9728 4.3338C34.3668 3.98619 34.5522 3.49955 34.5522 2.85069C34.5499 2.53929 34.4617 2.23455 34.2973 1.97007C34.1314 1.69249 33.8904 1.46753 33.6021 1.32121C33.1618 1.0663 32.397 0.950439 31.2847 0.950439H27.4147V7.74034H29.06V5.16806H30.4273C30.8849 5.14396 31.3425 5.21497 31.7713 5.37661C32.0049 5.47377 32.2002 5.6447 32.3275 5.86327C32.469 6.14562 32.5556 6.45233 32.5824 6.76704C32.6125 7.09672 32.6746 7.42269 32.7678 7.74034H34.668C34.567 7.40878 34.5048 7.0666 34.4827 6.72069V6.72069ZM32.3043 3.8008C32.0412 3.91273 31.7553 3.96039 31.4701 3.93984H29.0832V2.15548H31.4469C31.6654 2.14597 31.8842 2.16941 32.0958 2.22499C32.272 2.26277 32.4282 2.36381 32.535 2.50899C32.6417 2.65418 32.6916 2.83344 32.6751 3.01289C32.6903 3.16547 32.6638 3.31932 32.5986 3.45806C32.5333 3.5968 32.4316 3.71525 32.3043 3.8008V3.8008Z" fill="white"/>
<path d="M60.9239 15.9902C60.532 15.8809 60.1254 15.834 59.7189 15.8512H58.6714C58.3887 15.8627 58.1061 15.8235 57.8372 15.7353C57.7145 15.6806 57.6124 15.5882 57.5457 15.4715C57.4791 15.3548 57.4513 15.22 57.4664 15.0865C57.4664 14.6925 57.6054 14.4839 57.9067 14.3913C58.1977 14.3432 58.4923 14.3199 58.7873 14.3217H61.7072V13.1167H58.4629C58.0689 13.1167 57.7908 13.1167 57.5823 13.1399C57.0029 13.2094 56.5858 13.418 56.3309 13.8119C56.0659 14.192 55.9279 14.6463 55.9369 15.1096C55.9438 15.4024 55.9986 15.692 56.0992 15.9671C56.2127 16.2226 56.3784 16.4515 56.5858 16.6391C56.9102 16.9172 57.4432 17.0562 58.1848 17.0562H59.3898C59.6448 17.0386 59.9001 17.0865 60.1314 17.1953C60.2592 17.2644 60.3643 17.369 60.4342 17.4964C60.5041 17.6238 60.5357 17.7687 60.5253 17.9137C60.5284 18.0426 60.498 18.1702 60.4371 18.2839C60.3762 18.3977 60.2868 18.4936 60.1777 18.5625C59.8752 18.6787 59.5507 18.7262 59.2276 18.7016H56.2382V19.9066H59.5289C59.9086 19.9152 60.2885 19.8919 60.6644 19.8371C60.909 19.7977 61.1412 19.7017 61.3423 19.5569C61.5434 19.4121 61.708 19.2224 61.823 19.0028C62.0124 18.6631 62.1083 18.2793 62.1011 17.8905C62.1037 17.5323 62.0327 17.1773 61.8926 16.8477C61.8016 16.6439 61.6681 16.462 61.501 16.3141C61.334 16.1662 61.1372 16.0558 60.9239 15.9902V15.9902Z" fill="white"/>
<path d="M6.04848 0.950439H4.33362L1.46008 7.74034H3.19811L3.87015 6.16453H6.51196L7.18399 7.74034H8.92202L6.04848 0.950439ZM4.19459 4.95949L5.19105 2.59577L6.18752 4.95949H4.19459Z" fill="white"/>
<path d="M26.6732 6.41944H22.3629V4.88997H26.0012V4.75093V3.59224H22.3629V2.22499H26.5342V0.950439H20.7639V4.72775V7.71716H26.6732V6.41944Z" fill="white"/>
<path d="M17.2646 2.64212V4.75093V7.74034H18.9563V4.75093V0.950439H16.3608L14.785 4.72776L14.1593 6.23405L12.0737 0.950439H9.45508V7.74034H11.1468V2.64212L13.2092 7.74034H15.0399L16.3377 4.75093L17.2646 2.64212Z" fill="white"/>
<path d="M41.4347 18.8635C41.4251 18.6371 41.394 18.4121 41.342 18.1915C41.2964 18.031 41.2343 17.8757 41.1566 17.728C41.0562 17.5497 40.9225 17.3923 40.7626 17.2645C40.5736 17.1278 40.3617 17.0258 40.1369 16.9633C40.4493 16.8686 40.735 16.7019 40.9712 16.4766C41.3188 16.129 41.481 15.6424 41.481 14.9935C41.4756 14.6856 41.3961 14.3836 41.2493 14.1129C41.1035 13.8438 40.8872 13.6195 40.6236 13.464C40.2296 13.2091 39.5344 13.0933 38.5379 13.0933H35.0619V19.8832H36.5682V17.3109H37.7964C38.2086 17.2889 38.6205 17.3602 39.0014 17.5194C39.2178 17.6248 39.396 17.7949 39.5112 18.0061C39.6434 18.2905 39.722 18.5969 39.743 18.9099C39.769 19.2384 39.8233 19.564 39.9052 19.8832H41.5969C41.5066 19.55 41.4522 19.2082 41.4347 18.8635V18.8635ZM39.5112 15.9668C39.2716 16.0753 39.009 16.123 38.7465 16.1058H36.6145V14.3215H38.7419C38.9375 14.3125 39.1333 14.336 39.3212 14.391C39.6688 14.5069 39.831 14.7618 39.831 15.1789C39.8445 15.3262 39.8225 15.4746 39.7668 15.6117C39.7112 15.7488 39.6236 15.8705 39.5112 15.9668Z" fill="white"/>
<path d="M33.6253 14.1589C33.3577 13.7209 32.9362 13.3986 32.4434 13.2551C31.9576 13.1422 31.4587 13.0955 30.9603 13.1161H25.6535L23.8923 15.3407L22.2702 13.1161H14.785V19.8828H22.1311L23.8923 17.5654L25.6999 19.8828H28.8051V17.5191H31.4006C31.7507 17.5316 32.101 17.5005 32.4434 17.4264C32.7082 17.3596 32.954 17.2327 33.1618 17.0556C33.4117 16.8492 33.6101 16.5873 33.7411 16.2909C33.8811 15.9856 33.9523 15.6533 33.9497 15.3176C33.9493 14.909 33.8371 14.5083 33.6253 14.1589V14.1589ZM21.0883 18.6082L20.6943 18.585H16.384V17.0324H20.0223V15.7347H16.384V14.3674H20.5553V13.6259L22.8263 16.4531L21.0883 18.6082ZM27.2062 19.2107L24.9815 16.4762L27.2062 13.7881V19.2107ZM31.8177 16.1518C31.561 16.2848 31.2714 16.3412 30.9835 16.314H28.8051V14.3211H31.0298C31.2331 14.3108 31.4367 14.3343 31.6323 14.3906C31.8059 14.458 31.9523 14.5809 32.0487 14.7402C32.1451 14.8995 32.1861 15.0862 32.1653 15.2712C32.1812 15.435 32.1579 15.6003 32.0975 15.7533C32.0371 15.9064 31.9412 16.043 31.8177 16.1518V16.1518Z" fill="white"/>
<path d="M44.0531 17.0331H47.6914V15.7353H44.0531V14.3913H48.2244V13.1167H42.4541V19.8834H48.3634V18.5857H44.0531V17.0331Z" fill="white"/>
<path d="M51.9088 4.75093V2.78116L53.0443 4.75093L54.7592 7.74034H56.5899V4.75093V0.950439H55.1763V4.72776V5.97914L54.4811 4.72776L52.3955 0.950439H50.4952V4.72776V7.71717H51.9088V4.75093Z" fill="white"/>
<path d="M54.1804 15.9902C53.7885 15.8809 53.3819 15.834 52.9754 15.8512H51.9325C51.6498 15.8627 51.3672 15.8235 51.0983 15.7353C50.9756 15.6806 50.8735 15.5882 50.8069 15.4715C50.7402 15.3548 50.7124 15.22 50.7275 15.0865C50.7275 14.6925 50.8666 14.4839 51.1678 14.3913C51.4588 14.3432 51.7534 14.3199 52.0484 14.3217H54.9915V13.1167H51.7472C51.3532 13.1167 51.0751 13.1167 50.8666 13.1399C50.6178 13.1513 50.3746 13.2175 50.1543 13.3336C49.934 13.4498 49.742 13.6131 49.592 13.8119C49.327 14.192 49.1891 14.6463 49.198 15.1096C49.1935 15.4035 49.2487 15.6952 49.3603 15.9671C49.4738 16.2226 49.6396 16.4515 49.8469 16.6391C50.1713 16.9172 50.7043 17.0562 51.4459 17.0562H52.6463C52.9013 17.0386 53.1566 17.0865 53.3879 17.1953C53.5157 17.2644 53.6208 17.369 53.6907 17.4964C53.7606 17.6238 53.7922 17.7687 53.7818 17.9137C53.7849 18.0426 53.7545 18.1702 53.6936 18.2839C53.6327 18.3977 53.5433 18.4936 53.4342 18.5625C53.1317 18.6787 52.8072 18.7262 52.4841 18.7016H49.4947V19.9066H52.7853C53.1651 19.9152 53.545 19.8919 53.9209 19.8371C54.1655 19.7977 54.3977 19.7017 54.5988 19.5569C54.7999 19.4121 54.9645 19.2224 55.0795 19.0028C55.2689 18.6631 55.3648 18.2793 55.3576 17.8905C55.3602 17.5323 55.2892 17.1773 55.1491 16.8477C55.0581 16.6439 54.9246 16.462 54.7575 16.3141C54.5904 16.1662 54.3937 16.0558 54.1804 15.9902V15.9902Z" fill="white"/>
<path d="M48.433 4.75032L46.834 0.973008H45.1191L43.5201 4.75032L42.7554 6.5347H41.504C41.0481 6.56518 40.5942 6.4517 40.2063 6.21028C39.8819 5.95537 39.6965 5.46871 39.6269 4.75032C39.6071 4.58115 39.5994 4.41079 39.6038 4.24051C39.6038 3.49895 39.7428 2.96595 39.9977 2.68787C40.299 2.34026 40.7856 2.17804 41.4577 2.17804H43.636V0.973008H41.2908C40.7066 0.953326 40.1241 1.04779 39.576 1.2511C39.1403 1.43253 38.7747 1.74943 38.5331 2.15488C38.1378 2.82759 37.9447 3.59995 37.977 4.37955V4.75032C38.0108 5.27538 38.1281 5.7917 38.3246 6.2798C38.4906 6.64509 38.7449 6.9634 39.0644 7.20609C39.384 7.44879 39.7588 7.60828 40.1553 7.67022C40.508 7.72383 40.8646 7.74709 41.2213 7.73974H43.979L44.651 6.16393H47.2928L47.9648 7.73974H49.7029L48.433 4.75032ZM44.9801 4.95889L45.0728 4.75032L45.9765 2.59517L46.8803 4.75032L46.973 4.95889H44.9801Z" fill="white"/>
<path d="M37.1245 4.75093V0.950439H35.6414V4.72775V7.71716H37.1245V4.75093Z" fill="white"/>
</g>
<defs>
<clipPath id="clip0">
<rect width="62.963" height="20.81" fill="white"/>
</clipPath>
</defs>
</svg>
