<svg width="35" height="37" viewBox="0 0 35 37" fill="none" xmlns="http://www.w3.org/2000/svg">
<path d="M16.7791 33.6301C26.046 33.6301 33.5582 26.1017 33.5582 16.815C33.5582 7.52834 26.046 0 16.7791 0C7.51226 0 0 7.52834 0 16.815C0 26.1017 7.51226 33.6301 16.7791 33.6301Z" fill="#2396E9"/>
<g filter="url(#filter0_d)">
<path d="M26.8166 21.809C28.1893 19.0491 28.4739 15.652 27.0435 12.1603C26.5042 10.8521 25.7043 9.66783 24.6929 8.67984C23.6814 7.69185 22.4796 6.92089 21.1608 6.41405C11.6629 2.77668 2.78642 11.6573 6.38885 21.1742C6.90092 22.5158 7.6833 23.7373 8.68721 24.7625C9.69112 25.7877 10.895 26.5946 12.2239 27.133C15.8382 28.5965 19.3353 28.2058 22.1265 26.6787C22.5036 26.465 22.9417 26.3854 23.3696 26.4528L25.8443 26.8798C25.9831 26.9039 26.1256 26.8955 26.2607 26.8553C26.3958 26.8151 26.5197 26.7442 26.6229 26.6481C26.7261 26.5519 26.8058 26.4332 26.8557 26.3012C26.9056 26.1691 26.9243 26.0273 26.9105 25.8868C26.8152 24.9262 26.6808 23.6212 26.6064 22.8847C26.5729 22.5134 26.6458 22.1402 26.8166 21.809Z" fill="white"/>
</g>
<path d="M12.5625 16.7914C13.772 16.7914 14.7526 15.8087 14.7526 14.5965C14.7526 13.3843 13.772 12.4017 12.5625 12.4017C11.3529 12.4017 10.3723 13.3843 10.3723 14.5965C10.3723 15.8087 11.3529 16.7914 12.5625 16.7914Z" fill="#15CF68"/>
<path d="M20.6505 16.7914C21.8601 16.7914 22.8407 15.8087 22.8407 14.5965C22.8407 13.3843 21.8601 12.4017 20.6505 12.4017C19.4409 12.4017 18.4603 13.3843 18.4603 14.5965C18.4603 15.8087 19.4409 16.7914 20.6505 16.7914Z" fill="#15CF68"/>
<defs>
<filter id="filter0_d" x="4.56895" y="5.58054" width="30.421" height="30.4689" filterUnits="userSpaceOnUse" color-interpolation-filters="sRGB">
<feFlood flood-opacity="0" result="BackgroundImageFix"/>
<feColorMatrix in="SourceAlpha" type="matrix" values="0 0 0 0 0 0 0 0 0 0 0 0 0 0 0 0 0 0 127 0"/>
<feOffset dx="3" dy="4"/>
<feGaussianBlur stdDeviation="2"/>
<feColorMatrix type="matrix" values="0 0 0 0 0 0 0 0 0 0 0 0 0 0 0 0 0 0 0.25 0"/>
<feBlend mode="normal" in2="BackgroundImageFix" result="effect1_dropShadow"/>
<feBlend mode="normal" in="SourceGraphic" in2="effect1_dropShadow" result="shape"/>
</filter>
</defs>
</svg>
