<svg width="115" height="37" viewBox="0 0 115 37" fill="none" xmlns="http://www.w3.org/2000/svg">
<path d="M16.7791 33.6301C26.046 33.6301 33.5582 26.1017 33.5582 16.815C33.5582 7.52834 26.046 0 16.7791 0C7.51226 0 0 7.52834 0 16.815C0 26.1017 7.51226 33.6301 16.7791 33.6301Z" fill="#2396E9"/>
<g filter="url(#filter0_d)">
<path d="M26.8166 21.809C28.1893 19.0491 28.4739 15.652 27.0435 12.1603C26.5042 10.8521 25.7043 9.66783 24.6929 8.67984C23.6814 7.69185 22.4796 6.92089 21.1608 6.41405C11.6629 2.77668 2.78642 11.6573 6.38885 21.1742C6.90092 22.5158 7.6833 23.7373 8.68721 24.7625C9.69112 25.7877 10.895 26.5946 12.2239 27.133C15.8382 28.5965 19.3353 28.2058 22.1265 26.6787C22.5036 26.465 22.9417 26.3854 23.3696 26.4528L25.8443 26.8798C25.9831 26.9039 26.1256 26.8955 26.2607 26.8553C26.3958 26.8151 26.5197 26.7442 26.6229 26.6481C26.7261 26.5519 26.8058 26.4332 26.8557 26.3012C26.9056 26.1691 26.9243 26.0273 26.9105 25.8868C26.8152 24.9262 26.6808 23.6212 26.6064 22.8847C26.5729 22.5134 26.6458 22.1402 26.8166 21.809Z" fill="white"/>
</g>
<path d="M12.5625 16.7914C13.772 16.7914 14.7526 15.8087 14.7526 14.5965C14.7526 13.3843 13.772 12.4017 12.5625 12.4017C11.3529 12.4017 10.3723 13.3843 10.3723 14.5965C10.3723 15.8087 11.3529 16.7914 12.5625 16.7914Z" fill="#15CF68"/>
<path d="M20.6505 16.7914C21.8601 16.7914 22.8407 15.8087 22.8407 14.5965C22.8407 13.3843 21.8601 12.4017 20.6505 12.4017C19.4409 12.4017 18.4603 13.3843 18.4603 14.5965C18.4603 15.8087 19.4409 16.7914 20.6505 16.7914Z" fill="#15CF68"/>
<path d="M50.8989 12.6851V21.8914H48.1392V21.0257C47.5324 21.7249 46.6306 22.149 45.3978 22.149C42.9875 22.1499 41 20.0321 41 17.2887C41 14.5453 42.9875 12.4275 45.397 12.4275C46.6297 12.4275 47.5315 12.8515 48.1383 13.5508V12.6851H50.8989ZM48.1392 17.2887C48.1392 15.9078 47.219 15.0421 45.9494 15.0421C44.6799 15.0421 43.7597 15.9078 43.7597 17.2887C43.7597 18.6696 44.6799 19.5353 45.9494 19.5353C47.219 19.5353 48.1392 18.6696 48.1392 17.2887Z" fill="#2396E9"/>
<path d="M61.7548 16.239V21.8914H58.9951V16.6438C58.9951 15.5021 58.2772 14.9676 57.3938 14.9676C56.3816 14.9676 55.683 15.5573 55.683 16.8646V21.8914H52.9232V12.6851H55.683V13.5508C56.1803 12.8699 57.0996 12.4275 58.314 12.4275C60.1719 12.4275 61.7548 13.7532 61.7548 16.239Z" fill="#2396E9"/>
<path d="M72.2044 12.6827L69.0577 21.6131C68.0272 24.5405 66.3899 25.7006 63.8141 25.5718V22.994C65.102 22.994 65.7096 22.5892 66.1133 21.4659L62.4517 12.6827H65.4872L67.5299 18.3168L69.2591 12.6827H72.2044Z" fill="#2396E9"/>
<path d="M82.2871 9V21.8891H79.5274V21.0234C78.9206 21.7226 78.0188 22.1467 76.7861 22.1467C74.3757 22.1467 72.3891 20.0289 72.3891 17.2855C72.3891 14.542 74.3766 12.4242 76.7861 12.4242C78.0188 12.4242 78.9206 12.8483 79.5274 13.5475V9H82.2871ZM79.5274 17.2863C79.5274 15.9054 78.6072 15.0397 77.3376 15.0397C76.0681 15.0397 75.1479 15.9054 75.1479 17.2863C75.1479 18.6672 76.0681 19.5329 77.3376 19.5329C78.6072 19.5329 79.5274 18.6672 79.5274 17.2863Z" fill="#00CB5B"/>
<path d="M83.8511 17.2887C83.8511 14.5453 86.0215 12.4275 88.7269 12.4275C91.4315 12.4275 93.6028 14.5453 93.6028 17.2887C93.6028 20.0321 91.4315 22.1499 88.7269 22.1499C86.0224 22.1499 83.8511 20.0321 83.8511 17.2887ZM90.8431 17.2887C90.8431 15.9814 89.9229 15.1157 88.7269 15.1157C87.5309 15.1157 86.6108 15.9814 86.6108 17.2887C86.6108 18.596 87.5309 19.4608 88.7269 19.4608C89.9229 19.4608 90.8431 18.596 90.8431 17.2887Z" fill="#00CB5B"/>
<path d="M103.998 16.239V21.8914H101.238V16.6438C101.238 15.5021 100.52 14.9676 99.6367 14.9676C98.6245 14.9676 97.9259 15.5573 97.9259 16.8646V21.8914H95.1661V12.6851H97.9259V13.5508C98.4232 12.8699 99.3425 12.4275 100.557 12.4275C102.416 12.4275 103.998 13.7532 103.998 16.239Z" fill="#00CB5B"/>
<path d="M110.566 19.6816C111.32 19.6816 111.964 19.3872 112.332 18.9824L114.54 20.2529C113.638 21.505 112.277 22.1499 110.529 22.1499C107.383 22.1499 105.433 20.0321 105.433 17.2887C105.433 14.5453 107.42 12.4275 110.327 12.4275C113.013 12.4275 115 14.5085 115 17.2887C115 17.6751 114.963 18.0431 114.89 18.3936H108.358C108.707 19.3504 109.554 19.6816 110.566 19.6816ZM112.259 16.331C111.964 15.2629 111.136 14.8765 110.309 14.8765C109.26 14.8765 108.56 15.3926 108.303 16.331H112.259Z" fill="#00CB5B"/>
<defs>
<filter id="filter0_d" x="4.56895" y="5.58054" width="30.421" height="30.4689" filterUnits="userSpaceOnUse" color-interpolation-filters="sRGB">
<feFlood flood-opacity="0" result="BackgroundImageFix"/>
<feColorMatrix in="SourceAlpha" type="matrix" values="0 0 0 0 0 0 0 0 0 0 0 0 0 0 0 0 0 0 127 0"/>
<feOffset dx="3" dy="4"/>
<feGaussianBlur stdDeviation="2"/>
<feColorMatrix type="matrix" values="0 0 0 0 0 0 0 0 0 0 0 0 0 0 0 0 0 0 0.25 0"/>
<feBlend mode="normal" in2="BackgroundImageFix" result="effect1_dropShadow"/>
<feBlend mode="normal" in="SourceGraphic" in2="effect1_dropShadow" result="shape"/>
</filter>
</defs>
</svg>
