<svg width="57" height="56" viewBox="0 0 57 56" fill="none" xmlns="http://www.w3.org/2000/svg">
<path d="M50.0995 21.1829C49.9305 15.5076 47.5573 10.1214 43.4832 6.16675C39.4092 2.21209 33.9547 0.000103134 28.2769 3.60639e-09C22.5991 -0.000103127 17.1446 2.21168 13.0704 6.1662C8.99619 10.1207 6.62278 15.5069 6.45362 21.1821C2.32311 22.0781 0 25.7916 0 31.6745C0 38.4764 3.10548 42.3781 8.51966 42.3781C9.0968 42.3781 9.65047 42.1497 10.0598 41.7428C10.4691 41.3359 10.7007 40.7836 10.7041 40.2065L10.8129 21.8445C10.8129 19.5485 11.2652 17.275 12.1442 15.1539C13.0232 13.0328 14.3115 11.1057 15.9356 9.48276C17.5597 7.85979 19.4876 6.57277 21.6093 5.69523C23.731 4.8177 26.0048 4.36685 28.3008 4.36846C30.5968 4.37007 32.87 4.82411 34.9904 5.70462C37.1109 6.58514 39.037 7.87487 40.6588 9.50011C42.2806 11.1254 43.5662 13.0543 44.4422 15.1766C45.3182 17.2989 45.7674 19.573 45.7641 21.869L45.9828 41.2859C45.9828 46.0737 41.3617 48.6317 32.252 48.9044C31.7083 48.0179 30.8836 47.3389 29.9093 46.9753C28.9349 46.6118 27.867 46.5846 26.8755 46.8982C25.8839 47.2118 25.0258 47.8481 24.4377 48.7057C23.8496 49.5634 23.5653 50.5932 23.6302 51.6311C23.695 52.669 24.1052 53.6554 24.7954 54.4332C25.4856 55.2111 26.4163 55.7356 27.4391 55.9234C28.4619 56.1112 29.5182 55.9514 30.4397 55.4694C31.3612 54.9875 32.095 54.2111 32.5243 53.2639C46.4104 52.788 49.9815 47.1866 50.3211 42.1103C54.3235 41.1339 56.5776 37.4509 56.5776 31.6745C56.5776 25.7814 54.243 22.071 50.0995 21.1829Z" fill="#376AF5"/>
<path d="M24.6414 30.0559C24.4555 29.4127 24.443 28.7317 24.6052 28.0821C24.7674 27.4325 25.0985 26.8373 25.565 26.3569C26.0315 25.8766 26.6167 25.5281 27.2613 25.3469C27.9058 25.1657 28.5869 25.1582 29.2353 25.3252C29.8837 25.4921 30.4765 25.8276 30.9534 26.2976C31.4303 26.7675 31.7745 27.3553 31.951 28.0012C32.1275 28.6471 32.13 29.3281 31.9583 29.9753C31.7866 30.6225 31.4468 31.2128 30.9734 31.6863L26.9239 35.7362V42.7034C26.9239 43.0655 27.0678 43.4128 27.3238 43.6688C27.5799 43.9249 27.9271 44.0687 28.2892 44.0687C28.6513 44.0687 28.9986 43.9249 29.2546 43.6688C29.5107 43.4128 29.6545 43.0655 29.6545 42.7034V36.8669L32.904 33.6169C33.7177 32.8029 34.3017 31.7883 34.5968 30.6759C34.8919 29.5635 34.8876 28.3928 34.5843 27.2826C34.281 26.1723 33.6895 25.162 32.8698 24.3541C32.0502 23.5462 31.0314 22.9695 29.9169 22.6823C28.8024 22.3951 27.6318 22.4077 26.5238 22.7189C25.4157 23.0301 24.4097 23.6287 23.6076 24.4541C22.8056 25.2795 22.236 26.3023 21.9568 27.4188C21.6775 28.5353 21.6985 29.7058 22.0175 30.8116C22.0669 30.9841 22.1499 31.1452 22.2616 31.2856C22.3734 31.426 22.5117 31.543 22.6687 31.6299C22.8256 31.7168 22.9982 31.7719 23.1765 31.792C23.3548 31.8122 23.5353 31.797 23.7077 31.7474C23.8802 31.6977 24.0411 31.6145 24.1814 31.5026C24.3216 31.3907 24.4385 31.2523 24.5252 31.0952C24.6119 30.9381 24.6668 30.7654 24.6867 30.5871C24.7067 30.4088 24.6913 30.2283 24.6414 30.0559H24.6414Z" fill="#376AF5"/>
</svg>
