<svg width="16" height="16" viewBox="0 0 16 16" fill="none" xmlns="http://www.w3.org/2000/svg">
<path d="M12.7501 2.59961H11.6001V1.99961C11.6001 1.77871 11.421 1.59961 11.2001 1.59961C10.9792 1.59961 10.8001 1.77871 10.8001 1.99961V2.59961H5.2001V1.99961C5.2001 1.77871 5.02102 1.59961 4.8001 1.59961C4.57917 1.59961 4.4001 1.77871 4.4001 1.99961V2.59961H3.2501C2.34027 2.59961 1.6001 3.33978 1.6001 4.24961V12.7496C1.6001 13.6594 2.34027 14.3996 3.2501 14.3996H12.7501C13.6599 14.3996 14.4001 13.6594 14.4001 12.7496V4.24961C14.4001 3.33978 13.6599 2.59961 12.7501 2.59961ZM13.6001 12.7496C13.6001 13.2191 13.2195 13.5996 12.7501 13.5996H3.2501C2.78065 13.5996 2.4001 13.2191 2.4001 12.7496V6.12461C2.4001 6.05558 2.45607 5.99961 2.5251 5.99961H13.4751C13.5441 5.99961 13.6001 6.05558 13.6001 6.12461V12.7496Z" fill="#333333"/>
</svg>