<svg width="16" height="16" viewBox="0 0 16 16" fill="none" xmlns="http://www.w3.org/2000/svg">
<path d="M8.84493 7.43945H7.3584V11.899H8.84493V7.43945Z" fill="#525252"/>
<path d="M8.10252 0.75C3.99602 0.75 0.669922 4.0761 0.669922 8.18259C0.669922 12.2891 3.99602 15.6152 8.10252 15.6152C12.209 15.6152 15.5351 12.2891 15.5351 8.18259C15.5351 4.07607 12.209 0.75 8.10252 0.75ZM8.10252 14.1287C4.82474 14.1287 2.15642 11.4604 2.15642 8.18259C2.15642 4.90481 4.82474 2.23653 8.10252 2.23653C11.3803 2.23653 14.0486 4.90481 14.0486 8.18259C14.0486 11.4604 11.3803 14.1287 8.10252 14.1287Z" fill="#525252"/>
<path d="M8.84493 4.4668H7.3584V5.95333H8.84493V4.4668Z" fill="#525252"/>
</svg>
