<svg width="14" height="17" viewBox="0 0 14 17" fill="none" xmlns="http://www.w3.org/2000/svg">
<path d="M5.0173 6.43665C4.82327 6.43665 4.66602 6.5939 4.66602 6.78793V13.4273C4.66602 13.6212 4.82327 13.7786 5.0173 13.7786C5.21134 13.7786 5.36859 13.6212 5.36859 13.4273V6.78793C5.36859 6.5939 5.21134 6.43665 5.0173 6.43665Z" fill="#666666"/>
<path d="M4.04056 2.72674H2.342H2.34198C1.61774 2.72689 1.00598 3.26403 0.912206 3.98209L0.912203 3.98211C0.821934 4.67456 1.24029 5.32795 1.89771 5.54044V14.1206C1.89771 14.6562 2.09403 15.1617 2.44037 15.5261C2.78539 15.8916 3.2655 16.0991 3.76797 16.1H3.76814H10.4146L10.4148 16.1C10.9173 16.0991 11.3974 15.8917 11.7422 15.5262C12.0887 15.1618 12.285 14.6562 12.285 14.1206V5.54044C12.9425 5.32795 13.3608 4.67456 13.2705 3.98212L13.2705 3.98209C13.1768 3.26403 12.565 2.72689 11.8408 2.72674H11.8407H10.1422V2.38784V2.38763H10.0422L4.04056 2.72674ZM4.04056 2.72674V2.38793M4.04056 2.72674V2.38793M4.04056 2.38793V2.38763H4.14056L4.04056 2.38819C4.04056 2.3881 4.04056 2.38801 4.04056 2.38793ZM4.94314 2.38763H4.94314L4.94313 2.38635C4.94114 2.23051 5.0024 2.08049 5.11304 1.97043L5.11308 1.97039C5.22354 1.8604 5.37391 1.79991 5.52999 1.80261L5.52999 1.80262H5.53171H8.65103V1.80263L8.65276 1.80261C8.80883 1.79991 8.9592 1.8604 9.06967 1.97039L9.06974 1.97047C9.18033 2.08035 9.2416 2.23048 9.23962 2.38635L9.23961 2.38635V2.38763V2.72674H4.94314V2.38763ZM10.4146 15.1974H3.76814C3.23173 15.1974 2.80029 14.7357 2.80029 14.1206V5.59652H11.3825V14.1206C11.3825 14.7357 10.951 15.1974 10.4146 15.1974ZM2.342 3.62931H11.8407C12.1347 3.62931 12.3731 3.86763 12.3731 4.16163C12.3731 4.45563 12.1347 4.69395 11.8407 4.69395H2.342C2.048 4.69395 1.80968 4.45563 1.80968 4.16163C1.80968 3.86763 2.048 3.62931 2.342 3.62931Z" fill="#666666" stroke="#666666" stroke-width="0.2"/>
<path d="M7.09348 6.43665C6.89944 6.43665 6.74219 6.5939 6.74219 6.78793V13.4273C6.74219 13.6212 6.89944 13.7786 7.09348 13.7786C7.28751 13.7786 7.44476 13.6212 7.44476 13.4273V6.78793C7.44476 6.5939 7.28751 6.43665 7.09348 6.43665Z" fill="#666666"/>
</svg>
