<svg width="38" height="30" viewBox="0 0 38 30" fill="none" xmlns="http://www.w3.org/2000/svg">
<path fill-rule="evenodd" clip-rule="evenodd" d="M22.1875 29.9998C30.387 30.0393 37.8731 23.3131 37.8731 15.1293C37.8731 6.18279 30.3859 -0.00294441 22.1875 8.83885e-05L15.1293 1.09026e-06C6.83165 -0.00299851 0 6.18384 0 15.1293C0 23.3152 6.83164 30.0393 15.1293 29.9998L22.1875 29.9998V29.9998Z" fill="#0079BE"/>
<path fill-rule="evenodd" clip-rule="evenodd" d="M15.1598 1.24316C7.57823 1.24427 1.43177 7.39188 1.43066 14.9757C1.43177 22.5592 7.57822 28.7039 15.1598 28.707C22.7459 28.7038 28.8934 22.5592 28.8934 14.9757C28.8934 7.39191 22.7448 1.24435 15.1598 1.24316Z" fill="#FFFFFE"/>
<path fill-rule="evenodd" clip-rule="evenodd" d="M6.46521 14.971C6.47147 11.2635 8.78627 8.10312 12.0501 6.84692V23.093C8.78627 21.8378 6.47148 18.6772 6.46521 14.971V14.971Z" fill="#0079BE"/>
<path fill-rule="evenodd" clip-rule="evenodd" d="M18.2763 23.0951V6.84692C21.5421 8.09884 23.8598 11.2628 23.8664 14.971C23.8599 18.6793 21.542 21.8397 18.2762 23.0951H18.2763Z" fill="#0079BE"/>
</svg>
