<svg width="56" height="15" viewBox="0 0 56 15" fill="none" xmlns="http://www.w3.org/2000/svg">
<path d="M29.5935 0.0192871C26.9555 0.0192871 24.8331 2.08212 24.8331 4.60115C24.8331 7.29871 26.8761 9.30204 29.5935 9.30204C32.2514 9.30204 34.3341 7.25904 34.3341 4.64083C34.3341 2.05237 32.2514 0.0192871 29.5935 0.0192871Z" fill="url(#paint0_radial)"/>
<path d="M2.55871 0.187988H0V9.11371H2.53887C3.88765 9.11371 4.85957 8.79636 5.7323 8.0823C6.23505 7.66166 6.64075 7.13714 6.92152 6.54479C7.20228 5.95245 7.35145 5.30632 7.35877 4.65085C7.33894 2.0128 5.37527 0.187988 2.55871 0.187988ZM4.58188 6.89221C4.0265 7.38808 3.33228 7.60626 2.20169 7.60626H1.74547V1.69545H2.22152C3.35211 1.69545 4.0265 1.8938 4.60171 2.4095C4.90435 2.69971 5.14481 3.04844 5.30846 3.43448C5.47212 3.82052 5.55555 4.23582 5.5537 4.65511C5.55184 5.07441 5.46474 5.48895 5.29768 5.87352C5.13061 6.2581 4.88708 6.60469 4.58188 6.89221Z" fill="#081A23"/>
<path d="M9.89757 0.187988H8.1521V9.11371H9.89757V0.187988Z" fill="#081A23"/>
<path d="M14.1482 3.59966C13.097 3.20296 12.7995 2.96494 12.7995 2.46907C12.7995 1.91369 13.3548 1.47732 14.0887 1.47732C14.6044 1.47732 15.0408 1.69551 15.497 2.19138L16.4094 1.00129C15.6885 0.359636 14.7563 0.00650509 13.7912 0.0095409C12.2044 0.0095409 11.0143 1.10046 11.0143 2.56824C11.0143 3.79801 11.5697 4.43273 13.216 5.02778C13.6363 5.15663 14.0419 5.32949 14.4259 5.54348C14.5876 5.63836 14.7207 5.77497 14.8114 5.93898C14.9022 6.10299 14.9471 6.28838 14.9416 6.47573C14.9416 7.20962 14.3664 7.72533 13.5928 7.72533C13.1944 7.73232 12.8024 7.62362 12.4644 7.41239C12.1265 7.20117 11.857 6.89648 11.6887 6.53523L10.5581 7.62615C11.3515 8.79641 12.3234 9.33196 13.6524 9.33196C15.4573 9.33196 16.7268 8.12204 16.7268 6.3964C16.7268 4.9782 16.1317 4.33355 14.1482 3.59966Z" fill="#081A23"/>
<path d="M17.2763 4.65135C17.2723 5.26964 17.392 5.88251 17.6286 6.45378C17.8651 7.02506 18.2136 7.54318 18.6536 7.97761C19.0936 8.41204 19.6161 8.75397 20.1903 8.98325C20.7645 9.21252 21.3789 9.32449 21.9971 9.31256C22.7551 9.31743 23.5033 9.14059 24.1789 8.79686V6.76378C23.4847 7.458 22.8698 7.73569 22.0764 7.73569C20.3309 7.73569 19.0813 6.46626 19.0813 4.66128C19.0813 2.95547 20.3706 1.58686 21.9971 1.58686C22.8301 1.58686 23.4648 1.88438 24.1789 2.59844V0.55544C23.5252 0.187375 22.7869 -0.00403529 22.0367 6.45005e-05C19.3789 -0.00985297 17.2763 2.05297 17.2763 4.65135Z" fill="#081A23"/>
<path d="M38.2818 6.17814L35.9016 0.187988H33.9974L37.7859 9.3319H38.7182L42.586 0.187988H40.7016L38.2818 6.17814Z" fill="#081A23"/>
<path d="M43.3794 9.11371H48.3183V7.60626H45.1249V5.18639H48.1993V3.67894H45.1249V1.69544H48.3183V0.187988H43.3794V9.11371Z" fill="#081A23"/>
<path d="M55.2202 2.82605C55.2202 1.15991 54.0698 0.187988 52.0665 0.187988H49.4879V9.11371H51.2334V5.52359H51.4516L53.8516 9.11371H55.9997L53.1832 5.34507C54.4863 5.08722 55.2202 4.19466 55.2202 2.82605ZM51.7094 4.29382H51.1937V1.60619H51.7293C52.8202 1.60619 53.4152 2.0624 53.4152 2.93513C53.4152 3.80787 52.84 4.29382 51.7094 4.29382V4.29382Z" fill="#081A23"/>
<path d="M15.6101 11.4553L17.9308 13.895V11.5743H18.268V14.6983L15.9473 12.2586V14.5595H15.6101V11.4652V11.4553Z" fill="#231F20"/>
<path d="M15.5708 11.4543V14.6081H15.9675V12.3469C16.0667 12.4461 18.2882 14.7866 18.2882 14.7866V11.5535H17.8915V13.8147C17.7923 13.7155 15.5708 11.375 15.5708 11.375V11.4543ZM15.6303 11.5337C15.7295 11.6329 17.9708 13.9734 17.9708 13.9734V11.613H18.2485V14.6279C18.1493 14.5288 15.9278 12.1882 15.9278 12.1882V14.5288H15.6501C15.6303 14.499 15.6303 11.6924 15.6303 11.5337V11.5337Z" fill="#231F20"/>
<path d="M19.875 11.5935H21.4221V11.9208H20.2122V12.8134H21.4023V13.1307H20.2122V14.301H21.4221V14.6183H19.875V11.5935Z" fill="#231F20"/>
<path d="M21.4216 11.5536H19.8348V14.6082H21.4415V14.2313H20.2315V13.1206H21.4018V12.7437H20.2315V11.9206H21.4415V11.5437H21.4216V11.5536ZM21.4018 11.6131V11.8512H20.1919V12.8032H21.382V13.0412H20.1919V14.271H21.4018V14.509H19.9142V11.5735C19.9737 11.6131 21.3423 11.6131 21.4018 11.6131V11.6131Z" fill="#231F20"/>
<path d="M23.7821 14.5693H23.4449V11.8916H22.7308V11.5742H24.516V11.8916H23.7821V14.5693Z" fill="#231F20"/>
<path d="M24.5162 11.5535H22.6914V11.9303H23.4055V14.608H23.8022V11.9303H24.5361V11.5535H24.5162ZM24.4766 11.613V11.851H23.7427V14.5287H23.4709V11.851H22.7569V11.613H24.4766Z" fill="#231F20"/>
<path d="M26.7378 13.8346L27.7097 11.4346L28.6817 13.8346L29.4751 11.5932H29.8321L28.6817 14.7272L27.7097 12.3271L26.7378 14.7272L25.5874 11.5932H25.9444L26.7378 13.8346Z" fill="#231F20"/>
<path d="M27.6696 11.4152C27.6696 11.4152 26.7968 13.5971 26.7373 13.7359C26.6778 13.5971 25.9638 11.5541 25.9638 11.5541H25.5472L26.7373 14.807C26.7373 14.807 27.6498 12.526 27.7093 12.3871C27.7688 12.526 28.6812 14.807 28.6812 14.807L29.8713 11.5541H29.4349C29.4349 11.5541 28.7208 13.5971 28.6613 13.7359C28.6018 13.5971 27.6894 11.3557 27.6894 11.3557L27.6696 11.4152ZM26.7572 13.8351C26.7572 13.8351 27.6498 11.6532 27.6894 11.5144C27.7489 11.6532 28.6613 13.9144 28.6613 13.9144C28.6613 13.9144 29.4547 11.6532 29.4746 11.6136H29.7721C29.7523 11.6929 28.7208 14.4896 28.6613 14.6483C28.6018 14.5095 27.6894 12.2483 27.6894 12.2483C27.6894 12.2483 26.777 14.5095 26.7175 14.6483C26.658 14.5095 25.6464 11.6929 25.6068 11.6136H25.9043C25.9241 11.6532 26.7175 13.9144 26.7175 13.9144L26.7572 13.8351Z" fill="#231F20"/>
<path d="M34.1163 13.0813C34.1203 13.392 34.0317 13.6969 33.862 13.9572C33.6922 14.2175 33.4489 14.4214 33.1629 14.5431C32.877 14.6647 32.5613 14.6986 32.256 14.6404C31.9508 14.5822 31.6697 14.4345 31.4486 14.2162C31.2274 13.9978 31.0762 13.7187 31.0141 13.4142C30.9521 13.1097 30.9819 12.7937 31.0999 12.5062C31.2179 12.2187 31.4187 11.9728 31.6768 11.7997C31.9349 11.6266 32.2386 11.5342 32.5494 11.5342C32.9616 11.5341 33.3571 11.6965 33.6504 11.9861C33.9437 12.2757 34.1111 12.6692 34.1163 13.0813V13.0813ZM31.3394 13.0813C31.3394 13.4075 31.469 13.7203 31.6996 13.9509C31.9303 14.1815 32.2431 14.3111 32.5692 14.3111C32.8954 14.3111 33.2082 14.1815 33.4388 13.9509C33.6694 13.7203 33.799 13.4075 33.799 13.0813C33.799 12.7551 33.6694 12.4424 33.4388 12.2117C33.2082 11.9811 32.8954 11.8515 32.5692 11.8515C32.2431 11.8515 31.9303 11.9811 31.6996 12.2117C31.469 12.4424 31.3394 12.7551 31.3394 13.0813V13.0813Z" fill="#231F20"/>
<path d="M30.9825 13.0807C30.9825 13.5015 31.1497 13.9051 31.4473 14.2027C31.7449 14.5003 32.1485 14.6675 32.5693 14.6675C32.9902 14.6675 33.3938 14.5003 33.6914 14.2027C33.989 13.9051 34.1561 13.5015 34.1561 13.0807C34.1561 12.6598 33.989 12.2562 33.6914 11.9587C33.3938 11.6611 32.9902 11.4939 32.5693 11.4939C32.1485 11.4939 31.7449 11.6611 31.4473 11.9587C31.1497 12.2562 30.9825 12.6598 30.9825 13.0807ZM31.042 13.0807C31.0381 12.7778 31.1243 12.4806 31.2897 12.2268C31.4552 11.9731 31.6923 11.7742 31.971 11.6556C32.2497 11.537 32.5574 11.5039 32.855 11.5605C33.1525 11.6172 33.4265 11.7611 33.6421 11.9739C33.8577 12.1867 34.0051 12.4587 34.0657 12.7555C34.1262 13.0523 34.0972 13.3604 33.9822 13.6407C33.8672 13.9209 33.6715 14.1606 33.4199 14.3293C33.1683 14.498 32.8722 14.5881 32.5693 14.5882C32.1674 14.5892 31.7813 14.4314 31.4952 14.149C31.2091 13.8666 31.0462 13.4826 31.042 13.0807V13.0807Z" fill="#231F20"/>
<path d="M31.2998 13.0814C31.3037 13.3277 31.3803 13.5673 31.52 13.7702C31.6596 13.9731 31.8561 14.1301 32.0848 14.2217C32.3134 14.3132 32.564 14.3352 32.8051 14.2847C33.0462 14.2343 33.267 14.1138 33.4398 13.9382C33.6126 13.7627 33.7296 13.54 33.7763 13.2982C33.8229 13.0563 33.797 12.8061 33.7019 12.5789C33.6067 12.3518 33.4466 12.1578 33.2415 12.0213C33.0365 11.8849 32.7957 11.812 32.5494 11.812C32.2167 11.8187 31.8997 11.9553 31.6663 12.1924C31.4328 12.4296 31.3013 12.7486 31.2998 13.0814V13.0814ZM31.3791 13.0814C31.3791 12.764 31.5039 12.4592 31.7265 12.2328C31.9491 12.0065 32.2518 11.8767 32.5692 11.8715C32.7272 11.8715 32.8836 11.9029 33.0293 11.964C33.175 12.025 33.3071 12.1144 33.4179 12.2271C33.5286 12.3397 33.6159 12.4732 33.6745 12.6199C33.7331 12.7666 33.762 12.9235 33.7593 13.0814C33.7594 13.3989 33.6346 13.7037 33.412 13.9301C33.1894 14.1564 32.8867 14.2862 32.5692 14.2914C32.4113 14.2914 32.2549 14.26 32.1092 14.1989C31.9635 14.1379 31.8314 14.0484 31.7206 13.9358C31.6099 13.8232 31.5226 13.6897 31.464 13.543C31.4053 13.3963 31.3765 13.2394 31.3791 13.0814Z" fill="#231F20"/>
<path d="M35.9016 14.5693H35.5703V11.5742H36.0067C36.5819 11.5742 37.0976 11.7329 37.0976 12.4073C37.1029 12.5115 37.0877 12.6158 37.0527 12.7141C37.0177 12.8124 36.9636 12.9028 36.8936 12.9802C36.8236 13.0576 36.739 13.1204 36.6446 13.165C36.5503 13.2097 36.4481 13.2353 36.3439 13.2404L37.296 14.5891H36.8794L35.9868 13.28H35.9075L35.9016 14.5693ZM35.9016 12.9627H36.0007C36.3776 12.9627 36.7545 12.8833 36.7545 12.4271C36.7545 11.9312 36.3974 11.8916 36.0007 11.8916H35.9016V12.9627Z" fill="#231F20"/>
<path d="M35.5698 11.5535H35.5302V14.608H35.9269V13.3089H35.9864C35.9864 13.3287 36.8591 14.5981 36.8591 14.5981L37.2955 14.618H37.355C37.355 14.618 36.4426 13.3287 36.4029 13.2692C36.6086 13.2505 36.7993 13.1538 36.9358 12.9988C37.0723 12.8439 37.1442 12.6425 37.1368 12.4361C37.1368 11.8609 36.7599 11.5832 36.0062 11.5832L35.5698 11.5634V11.5535ZM36.0062 11.613C36.7203 11.613 37.0773 11.8708 37.0773 12.4064C37.0826 12.5054 37.0684 12.6045 37.0354 12.698C37.0024 12.7915 36.9512 12.8775 36.8849 12.9512C36.8186 13.0249 36.7383 13.0848 36.6488 13.1275C36.5593 13.1701 36.4622 13.1947 36.3632 13.1998H36.3037C36.3037 13.1998 37.1963 14.4494 37.2558 14.5287H36.8988C36.8988 14.5089 36.026 13.2394 36.026 13.2394L35.9269 13.2196H35.8673V14.5287H35.5897V11.5931C35.726 11.6081 35.8631 11.6147 36.0002 11.613H36.0062Z" fill="#231F20"/>
<path d="M35.9016 11.8704H35.8619V13.001H36.0008C36.3776 13.001 36.7942 12.9415 36.7942 12.4258C36.7942 11.9101 36.3776 11.8506 36.0008 11.8506H35.9016V11.8704ZM36.0008 11.9299C36.3776 11.9299 36.7347 11.9696 36.7347 12.4456C36.7347 12.882 36.3776 12.9415 36.0008 12.9415H35.9215V11.9299H36.0008Z" fill="#231F20"/>
<path d="M40.3043 11.594H40.7605L39.3522 12.9825L40.8001 14.5693H40.3439L39.1142 13.2007L39.0348 13.28V14.5693H38.6976V11.5742H39.0348V12.8635L40.3043 11.594Z" fill="#231F20"/>
<path d="M40.761 11.5535H40.3048L39.075 12.7832V11.5535H38.6783V14.608H39.075V13.3089L39.1147 13.2692C39.1544 13.3089 40.3246 14.618 40.3246 14.618L40.8007 14.6378H40.88C40.88 14.6378 39.4321 13.051 39.3924 13.0113L40.8205 11.5832L40.761 11.5634V11.5535ZM40.6817 11.613L39.3131 12.9816C39.3131 12.9816 40.642 14.4494 40.7412 14.5485H40.3445C40.3445 14.5287 39.1345 13.1799 39.1345 13.1799L39.1147 13.1601L39.0155 13.2593V14.5485H38.7438V11.613H39.0215V12.9419L40.3306 11.613H40.6817Z" fill="#231F20"/>
<defs>
<radialGradient id="paint0_radial" cx="0" cy="0" r="1" gradientUnits="userSpaceOnUse" gradientTransform="translate(29.5809 4.66201) scale(4.70386)">
<stop offset="0.01" stop-color="#FFEEE1"/>
<stop offset="0.11" stop-color="#FDE8D7"/>
<stop offset="0.28" stop-color="#FCDBC0"/>
<stop offset="0.49" stop-color="#FBC698"/>
<stop offset="0.74" stop-color="#F8A561"/>
<stop offset="1" stop-color="#F48220"/>
</radialGradient>
</defs>
</svg>
