<svg width="34" height="34" viewBox="0 0 34 34" fill="none" xmlns="http://www.w3.org/2000/svg">
<circle cx="17" cy="17" r="17" fill="#DE4132"/>
<g clip-path="url(#clip0)">
<path d="M22.0203 12H19.364V13.6245H22.0203C22.8106 13.6245 23.4235 14.0401 23.4235 14.398V21.6017C23.4235 21.9594 22.8106 22.3755 22.0203 22.3755H11.9792C11.1892 22.3755 10.5763 21.9594 10.5763 21.6017V14.3988C10.5763 14.0409 11.1892 13.625 11.9792 13.625H14.6352V12.0005H11.9792C10.3086 12.0005 9 13.054 9 14.3988V21.602C9 22.9471 10.3086 24 11.9792 24H22.0208C23.6909 24 25 22.9465 25 21.602V14.3988C24.9997 13.0535 23.6912 12 22.0203 12Z" fill="white"/>
<path d="M19.2487 15.9068C19.0563 15.9068 18.8642 15.9873 18.7175 16.1477L17.7768 17.1755V13.6098V11.9675V8.82115C17.7768 8.36787 17.4404 8 17.0254 8C16.6104 8 16.2741 8.36787 16.2741 8.82115V11.9672V13.6095V17.2308L15.2825 16.1474C15.1358 15.987 14.9434 15.9066 14.7513 15.9066C14.5593 15.9066 14.3669 15.987 14.2201 16.1474C13.9266 16.4677 13.9266 16.9878 14.2201 17.3083L16.4634 19.76C16.6102 19.9203 16.8025 20 16.9944 20C16.9964 20 16.9984 20 17.0001 20C17.0019 20 17.0039 20 17.0056 20C17.198 20 17.3898 19.9203 17.5366 19.76L19.7799 17.3083C20.0734 16.9878 20.0734 16.4677 19.7799 16.1474C19.6331 15.9873 19.4412 15.9068 19.2487 15.9068Z" fill="white"/>
</g>
<defs>
<clipPath id="clip0">
<rect width="17" height="17" fill="white" transform="translate(9 7)"/>
</clipPath>
</defs>
</svg>
