<svg width="50" height="39" viewBox="0 0 50 39" fill="none" xmlns="http://www.w3.org/2000/svg">
<path d="M50 30.7431C50 35.0378 46.5192 38.5204 42.2227 38.5204H0V7.77852C0 3.48254 3.48128 0 7.77774 0H50V30.7431Z" fill="white"/>
<path fill-rule="evenodd" clip-rule="evenodd" d="M36.2169 22.871H39.4329C39.5328 22.871 39.7239 22.855 39.8158 22.8341C40.4343 22.7026 40.9469 22.1531 40.9469 21.4052C40.9469 20.6611 40.4343 20.1104 39.8158 19.9764C39.7239 19.9568 39.5328 19.9397 39.4329 19.9397H36.2169V22.871Z" fill="url(#paint0_linear)"/>
<path fill-rule="evenodd" clip-rule="evenodd" d="M39.0844 2.63818C36.0166 2.63818 33.5286 5.12602 33.5286 8.19447V13.964H41.3903C41.5728 13.964 41.7958 13.9769 41.9349 13.9855C43.714 14.0742 45.0261 14.9874 45.0261 16.5743C45.0261 17.8213 44.1294 18.8857 42.4965 19.1247V19.189C44.3003 19.3146 45.6801 20.3061 45.6801 21.8703C45.6801 23.5596 44.1648 24.6466 42.1455 24.6466H33.5286V35.9732H41.677C44.7467 35.9732 47.2334 33.4853 47.2334 30.4174V2.63818H39.0844Z" fill="url(#paint1_linear)"/>
<path fill-rule="evenodd" clip-rule="evenodd" d="M40.5673 16.8938C40.5673 16.1596 40.0529 15.6683 39.4489 15.5648C39.3926 15.557 39.2382 15.541 39.1317 15.541H36.2169V18.2462H39.1317C39.2382 18.2462 39.3926 18.231 39.4489 18.2211C40.0529 18.1195 40.5673 17.627 40.5673 16.8938Z" fill="url(#paint2_linear)"/>
<path fill-rule="evenodd" clip-rule="evenodd" d="M8.34207 2.63818C5.27363 2.63818 2.78625 5.12602 2.78625 8.19447V21.9156C4.3451 22.6703 5.95411 23.1621 7.59182 23.1621C9.51254 23.1621 10.569 21.9892 10.569 20.4102V13.964H15.347V20.4102C15.347 22.9318 13.7986 24.9547 8.48899 24.9547C5.29322 24.9547 2.78625 24.2645 2.78625 24.2645V35.9732H10.9347C14.0031 35.9732 16.4898 33.4853 16.4898 30.4174V2.63818H8.34207Z" fill="url(#paint3_linear)"/>
<path fill-rule="evenodd" clip-rule="evenodd" d="M23.6888 2.63818C20.6214 2.63818 18.1329 5.12602 18.1329 8.19447V15.4683C19.5411 14.2599 21.9737 13.5052 25.9292 13.6835C28.0482 13.7777 30.2924 14.3456 30.2924 14.3456V16.6974C29.1685 16.1296 27.8204 15.6 26.0847 15.4695C23.0829 15.2428 21.2774 16.7096 21.2774 19.3066C21.2774 21.9021 23.0829 23.3685 26.0847 23.1419C27.8204 23.0096 29.1862 22.4688 30.2924 21.9156V24.2658C30.2924 24.2658 28.0482 24.8335 25.9292 24.929C21.9737 25.1073 19.5411 24.3533 18.1329 23.1455V35.9732H26.2813C29.3498 35.9732 31.837 33.4853 31.837 30.4174V2.63818H23.6888Z" fill="url(#paint4_linear)"/>
<defs>
<linearGradient id="paint0_linear" x1="33.6174" y1="21.4052" x2="47.3433" y2="21.4052" gradientUnits="userSpaceOnUse">
<stop stop-color="#007F49"/>
<stop offset="1" stop-color="#62BC46"/>
</linearGradient>
<linearGradient id="paint1_linear" x1="33.6443" y1="19.3053" x2="47.3723" y2="19.3053" gradientUnits="userSpaceOnUse">
<stop stop-color="#007F49"/>
<stop offset="1" stop-color="#62BC46"/>
</linearGradient>
<linearGradient id="paint2_linear" x1="33.6179" y1="16.8938" x2="47.3432" y2="16.8938" gradientUnits="userSpaceOnUse">
<stop stop-color="#007F49"/>
<stop offset="1" stop-color="#62BC46"/>
</linearGradient>
<linearGradient id="paint3_linear" x1="2.90137" y1="19.3053" x2="16.605" y2="19.3053" gradientUnits="userSpaceOnUse">
<stop stop-color="#323377"/>
<stop offset="1" stop-color="#0078C1"/>
</linearGradient>
<linearGradient id="paint4_linear" x1="18.2479" y1="19.3053" x2="31.9522" y2="19.3053" gradientUnits="userSpaceOnUse">
<stop stop-color="#743236"/>
<stop offset="1" stop-color="#ED1846"/>
</linearGradient>
</defs>
</svg>
