<svg width="52" height="32" viewBox="0 0 52 32" fill="none" xmlns="http://www.w3.org/2000/svg">
<path d="M51.2098 15.6935C51.2098 24.3291 44.4184 31.3871 35.9292 31.3871C27.5209 31.3871 20.6487 24.3291 20.6487 15.6935C20.6487 7.05794 27.44 0 35.8484 0C44.4184 0 51.2098 7.05794 51.2098 15.6935Z" fill="#FF9900"/>
<path d="M15.159 0C6.80937 0.0830346 0 7.05794 0 15.6935C0 24.3291 6.80937 31.3871 15.3211 31.3871C19.2932 31.3871 22.86 29.8094 25.6162 27.3184C26.1837 26.8202 26.67 26.2389 27.1564 25.6577H23.9949C23.5896 25.1595 23.1843 24.5783 22.86 24.08H28.2913C28.6156 23.5818 28.9398 23.0006 29.183 22.4194H21.9683C21.7251 21.9211 21.482 21.3399 21.3198 20.7587H29.7505C30.2369 19.181 30.5611 17.5203 30.5611 15.7766C30.5611 14.6141 30.399 13.5346 30.2369 12.4552H20.8334C20.9145 11.874 21.0766 11.3757 21.2388 10.7945H29.6694C29.5073 10.2133 29.2641 9.63202 29.0209 9.13381H21.8873C22.1305 8.55257 22.4547 8.05436 22.779 7.47312H28.2103C27.886 6.89188 27.4807 6.31063 26.9943 5.81242H23.9949C24.4813 5.23118 24.9677 4.73297 25.5352 4.23477C22.86 1.66069 19.2122 0.166069 15.24 0.166069C15.24 -1.60851e-07 15.24 0 15.159 0Z" fill="#CC0000"/>
<path d="M20.7951 19.6064L21.0397 18.2205C20.9582 18.2205 20.7951 18.302 20.6321 18.302C20.0614 18.302 19.9798 17.9759 20.0614 17.8128L20.5505 14.9593H21.4474L21.692 13.4102H20.8767L21.0397 12.4319H19.4091C19.4091 12.4319 18.4308 17.8128 18.4308 18.465C18.4308 19.4434 19.0015 19.851 19.7353 19.851C20.2244 19.851 20.6321 19.688 20.7951 19.6064Z" fill="white"/>
<path d="M21.3672 16.997C21.3672 19.2798 22.9162 19.8505 24.2207 19.8505C25.4436 19.8505 25.9328 19.6059 25.9328 19.6059L26.2589 18.0569C26.2589 18.0569 25.3621 18.4645 24.5468 18.4645C22.7532 18.4645 23.0793 17.1601 23.0793 17.1601H26.422C26.422 17.1601 26.6666 16.1002 26.6666 15.6925C26.6666 14.6327 26.0959 13.3282 24.3022 13.3282C22.5901 13.1651 21.3672 14.9588 21.3672 16.997ZM24.2207 14.6327C25.1175 14.6327 24.9545 15.6925 24.9545 15.7741H23.1608C23.1608 15.6925 23.3239 14.6327 24.2207 14.6327Z" fill="white"/>
<path d="M34.5728 19.6068L34.899 17.8132C34.899 17.8132 34.0837 18.2208 33.513 18.2208C32.3716 18.2208 31.8824 17.324 31.8824 16.3456C31.8824 14.3889 32.8607 13.3291 34.0021 13.3291C34.8174 13.3291 35.4697 13.8182 35.4697 13.8182L35.7143 12.1061C35.7143 12.1061 34.7359 11.6985 33.8391 11.6985C31.9639 11.6985 30.0887 13.3291 30.0887 16.4272C30.0887 18.4654 31.0671 19.8514 33.0238 19.8514C33.676 19.8514 34.5728 19.6068 34.5728 19.6068Z" fill="white"/>
<path d="M11.8293 13.1663C10.6879 13.1663 9.87261 13.4924 9.87261 13.4924L9.62802 14.8784C9.62802 14.8784 10.3618 14.5523 11.4217 14.5523C11.9924 14.5523 12.4815 14.6338 12.4815 15.123C12.4815 15.4491 12.4 15.5306 12.4 15.5306C12.4 15.5306 11.9108 15.5306 11.6663 15.5306C10.2803 15.5306 8.7312 16.1013 8.7312 17.9765C8.7312 19.444 9.70955 19.7701 10.2803 19.7701C11.4217 19.7701 11.9108 19.0364 11.9924 19.0364L11.9108 19.6886H13.3784L14.0306 15.2045C14.0306 13.2478 12.4 13.1663 11.8293 13.1663ZM12.1554 16.8351C12.1554 17.0797 11.9924 18.3841 11.014 18.3841C10.5248 18.3841 10.3618 17.9765 10.3618 17.7319C10.3618 17.3242 10.6064 16.7535 11.8293 16.7535C12.0739 16.8351 12.1554 16.8351 12.1554 16.8351Z" fill="white"/>
<path d="M15.5781 19.7699C15.9857 19.7699 18.0239 19.8514 18.0239 17.6501C18.0239 15.6119 16.0672 16.0195 16.0672 15.2042C16.0672 14.7966 16.3933 14.6335 16.964 14.6335C17.2086 14.6335 18.1055 14.7151 18.1055 14.7151L18.35 13.2475C18.35 13.2475 17.7793 13.0845 16.801 13.0845C15.5781 13.0845 14.3551 13.5736 14.3551 15.2042C14.3551 17.0794 16.3933 16.9163 16.3933 17.6501C16.3933 18.1393 15.8226 18.2208 15.415 18.2208C14.6812 18.2208 13.9475 17.9762 13.9475 17.9762L13.7029 19.4437C13.7844 19.6068 14.1921 19.7699 15.5781 19.7699Z" fill="white"/>
<path d="M48.1077 11.8621L47.7816 14.0633C47.7816 14.0633 47.1294 13.2481 46.2326 13.2481C44.765 13.2481 43.4606 15.0417 43.4606 17.1615C43.4606 18.4659 44.1128 19.8519 45.4988 19.8519C46.4771 19.8519 47.0479 19.1997 47.0479 19.1997L46.9663 19.7704H48.5969L49.8198 11.9436L48.1077 11.8621ZM47.374 16.1831C47.374 17.0799 46.9663 18.2213 46.0695 18.2213C45.4988 18.2213 45.1727 17.7322 45.1727 16.9169C45.1727 15.6124 45.7434 14.7971 46.4771 14.7971C47.0479 14.7971 47.374 15.2048 47.374 16.1831Z" fill="white"/>
<path d="M2.94066 19.6889L3.91901 13.8188L4.08206 19.6889H5.22347L7.34323 13.8188L6.44641 19.6889H8.15852L9.46299 11.8621H6.77253L5.14194 16.6723L5.06041 11.8621H2.69607L1.3916 19.6889H2.94066Z" fill="white"/>
<path d="M28.215 19.6891C28.7042 16.9986 28.7857 14.7974 29.9271 15.205C30.0902 14.1451 30.3348 13.7375 30.4978 13.3298C30.4978 13.3298 30.4163 13.3298 30.1717 13.3298C29.438 13.3298 28.8673 14.3082 28.8673 14.3082L29.0303 13.4114H27.4813L26.4214 19.7706H28.215V19.6891Z" fill="white"/>
<path d="M38.3237 13.1663C37.1823 13.1663 36.367 13.4924 36.367 13.4924L36.1224 14.8784C36.1224 14.8784 36.8562 14.5523 37.916 14.5523C38.4868 14.5523 38.9759 14.6338 38.9759 15.123C38.9759 15.4491 38.8944 15.5306 38.8944 15.5306C38.8944 15.5306 38.4052 15.5306 38.1606 15.5306C36.7746 15.5306 35.2256 16.1013 35.2256 17.9765C35.2256 19.444 36.2039 19.7701 36.7746 19.7701C37.916 19.7701 38.4052 19.0364 38.4868 19.0364L38.4052 19.6886H39.8727L40.525 15.2045C40.6065 13.2478 38.8944 13.1663 38.3237 13.1663ZM38.7313 16.8351C38.7313 17.0797 38.5683 18.3841 37.5899 18.3841C37.1008 18.3841 36.9377 17.9765 36.9377 17.7319C36.9377 17.3242 37.1823 16.7535 38.4052 16.7535C38.6498 16.8351 38.6498 16.8351 38.7313 16.8351Z" fill="white"/>
<path d="M41.9114 19.6891C42.4006 16.9986 42.4821 14.7974 43.6236 15.205C43.7866 14.1451 44.0312 13.7375 44.1943 13.3298C44.1943 13.3298 44.1127 13.3298 43.8681 13.3298C43.1344 13.3298 42.5637 14.3082 42.5637 14.3082L42.7267 13.4114H41.1777L40.1178 19.7706H41.9114V19.6891Z" fill="white"/>
</svg>
