<svg width="34" height="34" viewBox="0 0 34 34" fill="none" xmlns="http://www.w3.org/2000/svg">
<circle cx="17" cy="17" r="17" fill="#376AF5"/>
<g clip-path="url(#clip0)">
<path d="M24.9444 12.7295L19.378 7.16306C19.2736 7.05863 19.132 7 18.9844 7H10.4492C10.1418 7 9.89258 7.24923 9.89258 7.55664V25.4434C9.89258 25.7508 10.1418 26 10.4492 26H24.5508C24.8582 26 25.1074 25.7508 25.1074 25.4434V13.123C25.1074 12.9754 25.0488 12.8338 24.9444 12.7295ZM23.9941 24.8867H11.0059V8.11328H18.7538L23.9941 13.3536V24.8867Z" fill="white" stroke="white" stroke-width="0.4"/>
<path d="M19.3555 15.9434H18.0566V14.6445C18.0566 14.3371 17.8074 14.0879 17.5 14.0879C17.1926 14.0879 16.9434 14.3371 16.9434 14.6445V15.9434H15.6445C15.3371 15.9434 15.0879 16.1926 15.0879 16.5C15.0879 16.8074 15.3371 17.0566 15.6445 17.0566H16.9434V18.3555C16.9434 18.6629 17.1926 18.9121 17.5 18.9121C17.8074 18.9121 18.0566 18.6629 18.0566 18.3555V17.0566H19.3555C19.6629 17.0566 19.9121 16.8074 19.9121 16.5C19.9121 16.1926 19.6629 15.9434 19.3555 15.9434Z" fill="white" stroke="white" stroke-width="0.4"/>
</g>
<defs>
<clipPath id="clip0">
<rect width="19" height="19" fill="white" transform="translate(8 7)"/>
</clipPath>
</defs>
</svg>
