<svg width="40" height="40" viewBox="0 0 40 40" fill="none" xmlns="http://www.w3.org/2000/svg">
<rect width="40" height="40" rx="5" fill="#376AF5"/>
<path d="M27.2054 25.1556L23.3842 23.2452C23.0238 23.0648 22.7998 22.7024 22.7998 22.2992V20.9468C22.8914 20.8348 22.9878 20.7072 23.0874 20.5664C23.583 19.8664 23.9802 19.0872 24.269 18.2468C24.8334 17.988 25.1998 17.43 25.1998 16.8V15.2C25.1998 14.8148 25.0558 14.4416 24.7998 14.15V12.0224C24.8222 11.8024 24.9102 10.4928 23.963 9.4124C23.1414 8.4752 21.8082 8 19.9998 8C18.1914 8 16.8582 8.4752 16.0366 9.412C15.0894 10.4924 15.1774 11.8024 15.1998 12.0224V14.15C14.9438 14.4416 14.7998 14.8148 14.7998 15.2V16.8C14.7998 17.2868 15.021 17.7408 15.3986 18.0436C15.765 19.4944 16.5318 20.5876 16.7998 20.9384V22.262C16.7998 22.6492 16.5886 23.0044 16.249 23.19L12.6806 25.1364C11.5202 25.7696 10.7998 26.9832 10.7998 28.3048V29.6C10.7998 31.4984 16.8178 32 19.9998 32C23.1818 32 29.1998 31.4984 29.1998 29.6V28.3828C29.1998 27.0076 28.4354 25.7708 27.2054 25.1556Z" fill="white"/>
</svg>
