<svg width="17" height="16" viewBox="0 0 17 16" fill="none" xmlns="http://www.w3.org/2000/svg">
<path d="M15.7283 12.8432C15.6074 12.8432 15.5094 12.9413 15.5094 13.0622V14.5252C15.5094 14.5455 15.4929 14.5621 15.4725 14.5621H14.6405V11.3631C14.6405 11.2422 14.5425 11.1441 14.4216 11.1441C14.3006 11.1441 14.2026 11.2422 14.2026 11.3631V14.5621H12.5949L13.0301 14.0834C13.0973 14.0095 13.1289 13.9044 13.1148 13.8025C13.1145 13.8003 13.1142 13.7981 13.1138 13.7959L12.6247 10.9059L12.7147 10.7704L12.7381 10.787C12.8184 10.844 12.9207 10.8648 13.0198 10.8401C13.117 10.8158 13.1985 10.7503 13.2433 10.6607V10.6606L13.741 9.66304L14.8779 10.1034C14.9228 10.1229 15.5093 10.3918 15.5093 11.0914V12.0404C15.5093 12.1613 15.6073 12.2593 15.7282 12.2593C15.8492 12.2593 15.9472 12.1613 15.9472 12.0404V11.0915C15.9472 10.0811 15.0806 9.7132 15.0437 9.69802C15.0423 9.69743 15.0409 9.69688 15.0395 9.69635L13.1035 8.94654V8.54775C13.4057 8.30462 13.6179 7.95421 13.6817 7.55475C13.8324 7.53583 13.9722 7.47549 14.0883 7.37567C14.2547 7.23257 14.3502 7.02433 14.3502 6.80441C14.3502 6.62887 14.2892 6.46089 14.1802 6.32747V5.73664C14.1802 4.58039 13.2395 3.63974 12.0833 3.63974C11.5642 3.63974 11.0889 3.82973 10.7223 4.14333C10.7176 3.97555 10.6575 3.81569 10.5529 3.6877V3.09691C10.5529 1.94066 9.61219 1 8.45599 1C7.29974 1 6.35909 1.94068 6.35909 3.09691V3.70312C6.25384 3.82888 6.19496 3.98052 6.18976 4.14146C5.95586 3.94157 5.67592 3.79108 5.36393 3.70893C5.2468 3.6781 5.12719 3.74796 5.0964 3.86491C5.0656 3.98186 5.13543 4.10164 5.25238 4.13244C5.97968 4.32395 6.48766 4.98365 6.48766 5.73661V6.06408C6.4782 6.06213 6.44784 6.0569 6.44667 6.05673C6.44369 5.99492 6.42804 5.95717 6.39435 5.90871C6.3383 5.82817 6.23764 5.72783 5.91388 5.37984C5.79851 5.25591 5.6119 5.23317 5.47025 5.32577C4.91571 5.68801 4.24201 5.87263 3.61679 5.83593C3.41314 5.82399 3.28594 5.91347 3.23172 6.06011C3.22688 6.0609 3.17272 6.07182 3.16972 6.07255V5.73661C3.16972 5.01059 3.65486 4.35744 4.34947 4.14821C4.46525 4.11335 4.53085 3.9912 4.49599 3.87539C4.46111 3.75958 4.33878 3.69398 4.22315 3.7289C3.80071 3.85612 3.42099 4.12103 3.15401 4.47474C2.87775 4.84066 2.73175 5.27702 2.73175 5.73664V6.34288C2.62146 6.47467 2.56181 6.63482 2.56181 6.80441C2.56181 7.17926 2.83799 7.50617 3.23146 7.55492C3.29592 7.94504 3.50758 8.31916 3.84161 8.57353V8.94665L1.90772 9.69641C1.90635 9.69694 1.90498 9.69749 1.90361 9.69805C1.86665 9.7132 1 10.081 1 11.0914V14.5252C1 14.787 1.213 15 1.47484 15H8.21777C8.31201 15 8.39968 14.9721 8.47366 14.9245C8.54758 14.9721 8.63527 15 8.72954 15H15.4725C15.7343 15 15.9473 14.787 15.9473 14.5252V13.0622C15.9473 12.9413 15.8493 12.8432 15.7283 12.8432ZM3.21003 7.10251C3.08167 7.05591 2.99966 6.93718 2.99966 6.80435C2.99966 6.67552 3.09308 6.56966 3.21003 6.51942V7.10251ZM13.3309 9.5042L12.9011 10.3656C12.901 10.3655 12.4237 10.0265 12.4169 10.0217C12.6228 9.76747 12.5261 9.8869 12.9543 9.35837L13.3309 9.5042ZM12.1004 9.71667L11.5341 9.01768V8.80763C11.7182 8.87128 11.9165 8.90064 12.1031 8.9007C12.1031 8.9007 12.1032 8.9007 12.1032 8.9007H12.1032C12.2962 8.90067 12.4916 8.86404 12.6656 8.79855V9.01903L12.1004 9.71667ZM12.3575 10.5167L12.2769 10.6379H11.9239L11.8434 10.5167L12.1004 10.3341L12.3575 10.5167ZM8.47307 7.0769L7.9068 6.37792V6.16787C8.09014 6.23125 8.28822 6.26088 8.47579 6.26094C8.47582 6.26094 8.47588 6.26094 8.4759 6.26094H8.47593C8.66856 6.26094 8.86389 6.22441 9.03827 6.15882V6.37926L8.47307 7.0769ZM8.73013 7.87696L8.64958 7.9982H8.2966L8.21605 7.87696L8.4731 7.69441L8.73013 7.87696ZM6.7488 4.89417C6.78459 4.90392 6.82137 4.91055 6.85871 4.91516C6.92317 5.30528 7.13483 5.67939 7.46886 5.93376V6.30689L7.02217 6.48004C6.99627 6.42565 6.9639 6.37441 6.92548 6.32744V5.73664C6.92548 5.43951 6.86289 5.15388 6.7488 4.89417ZM9.63659 4.66231C9.63659 5.3032 9.11379 5.82294 8.47593 5.82294C7.75628 5.82294 7.27534 5.26519 7.27534 4.66231V3.63667C7.96673 3.66435 8.68499 3.45944 9.27223 3.09393C9.46966 3.30564 9.58714 3.42864 9.63662 3.48574C9.63659 4.03088 9.63659 4.24136 9.63659 4.66231ZM10.0544 4.91501C10.0915 4.91034 10.1281 4.90368 10.1637 4.89396C10.05 5.15204 9.98634 5.43697 9.98634 5.73664V6.34285C9.95268 6.38305 9.92372 6.42588 9.89975 6.47081L9.4762 6.3068V5.90801C9.77839 5.66486 9.99066 5.31444 10.0544 4.91501ZM7.61839 6.71896L8.15591 7.38242L7.78935 7.64277C7.78915 7.64292 7.789 7.64306 7.7888 7.64321L7.67246 7.72585L7.24264 6.86449L7.61839 6.71896ZM8.97702 7.15056L9.32696 6.71861L9.70354 6.86443L9.27377 7.72585L9.15717 7.64306C9.15706 7.64297 9.15694 7.64286 9.15682 7.64277L8.78959 7.38192L8.97702 7.15056ZM9.08737 8.13063L9.11081 8.14727C9.19267 8.20542 9.29541 8.22463 9.39245 8.20034C9.48969 8.17602 9.57117 8.1106 9.61595 8.02092V8.02089L9.98549 7.28027C10.1125 7.43675 10.2961 7.53192 10.4852 7.55554C10.552 7.97418 10.7783 8.33145 11.0962 8.57353V8.94662L9.23468 9.66833L8.99734 8.26615L9.08737 8.13063ZM11.2457 9.3587L11.7832 10.0222C11.5482 10.1891 11.3119 10.357 11.2998 10.3656L10.8699 9.50423L11.2457 9.3587ZM13.2639 7.30208C13.2639 7.92732 12.7562 8.46271 12.1032 8.46271C11.359 8.46271 10.9026 7.87982 10.9026 7.30208V6.27644C11.5891 6.30385 12.3083 6.10166 12.8995 5.7337C13.0969 5.94541 13.2144 6.0684 13.2639 6.12551C13.2639 6.67061 13.2639 6.88113 13.2639 7.30208ZM13.9123 6.80438C13.9123 6.93745 13.83 7.05594 13.7019 7.10251V6.50687C13.8343 6.55509 13.9123 6.6761 13.9123 6.80438ZM10.4243 5.73661C10.4243 4.82185 11.1685 4.07765 12.0832 4.07765C12.998 4.07765 13.7422 4.82188 13.7422 5.73661V6.06408C13.7322 6.06201 13.7048 6.05728 13.7012 6.05673C13.6982 5.99486 13.6825 5.95703 13.6489 5.90871C13.5913 5.82606 13.4918 5.72745 13.1684 5.37984C13.0555 5.25862 12.8693 5.23133 12.7248 5.32577C12.1853 5.6782 11.5037 5.87727 10.8551 5.83514C10.6729 5.8232 10.5409 5.91242 10.4863 6.06014C10.4814 6.06093 10.4273 6.07185 10.4242 6.07258V5.73661H10.4243ZM10.4647 6.51945V7.10222C10.336 7.0558 10.2543 6.93675 10.2543 6.80435C10.2543 6.67552 10.3477 6.56972 10.4647 6.51945ZM10.2849 4.16464C10.2849 4.25684 10.245 4.34404 10.1754 4.40386C10.1456 4.42955 10.1115 4.44928 10.0745 4.46274V3.8671C10.2055 3.91463 10.2849 4.03499 10.2849 4.16464ZM8.45591 1.43791C9.37067 1.43791 10.1149 2.18212 10.1149 3.09688V3.42435C10.105 3.4223 10.0775 3.41754 10.0739 3.41699C10.0706 3.34993 10.0513 3.30871 10.0119 3.25537C9.95326 3.17602 9.84518 3.06692 9.5411 2.74007C9.42628 2.61678 9.23979 2.59299 9.09747 2.686C8.52772 3.05822 7.83656 3.23937 7.21009 3.1945C7.05682 3.18291 6.91252 3.27551 6.85897 3.42035C6.8541 3.42113 6.8 3.43205 6.79697 3.43278V3.09691H6.79694C6.79694 2.18212 7.54118 1.43791 8.45591 1.43791ZM6.83734 3.87968V4.46277C6.70898 4.41618 6.62697 4.29745 6.62697 4.16461C6.62697 4.03651 6.71966 3.93027 6.83734 3.87968ZM6.44719 6.50687C6.56969 6.55145 6.64837 6.65832 6.65616 6.78535C6.66597 6.92659 6.57918 7.05431 6.44719 7.10224V6.50687ZM6.4269 7.55548C6.63342 7.52964 6.82298 7.42081 6.94729 7.25338L7.33025 8.02089C7.33025 8.02089 7.33025 8.02089 7.33028 8.02092C7.37503 8.11063 7.45651 8.17602 7.55376 8.20034C7.64989 8.22437 7.75274 8.20598 7.83539 8.14727L7.85883 8.13063L7.94884 8.26612L7.71158 9.66792L5.8489 8.94651V8.5479H5.84887C6.15899 8.29785 6.36466 7.94455 6.4269 7.55548ZM4.84571 9.71667L4.27943 9.01768V8.80763C4.46277 8.87101 4.66088 8.90064 4.84845 8.90067C4.84848 8.90067 4.84854 8.90067 4.84857 8.90067C5.04434 8.90067 5.23936 8.86307 5.4109 8.79855V9.01903L4.84571 9.71667ZM5.10279 10.5167L5.02224 10.6379H4.66926L4.58871 10.5167L4.84577 10.3341L5.10279 10.5167ZM5.6996 9.35837L6.0762 9.50423L5.64641 10.3656L5.52981 10.2828C5.52969 10.2827 5.52957 10.2826 5.52946 10.2825L5.16223 10.0217L5.6996 9.35837ZM3.64797 7.30208V6.27644C4.34305 6.3042 5.06177 6.09658 5.64483 5.7337C5.8404 5.94342 5.95969 6.06835 6.00923 6.12551C6.00923 6.67064 6.00923 6.88116 6.00923 7.30208C6.00923 7.93888 5.49002 8.46271 4.84857 8.46271C4.1344 8.46271 3.64797 7.91132 3.64797 7.30208ZM3.99106 9.3587L4.52857 10.0222L4.16202 10.2825C4.16181 10.2827 4.16167 10.2828 4.16146 10.2829L4.04512 10.3656L3.6153 9.50423L3.99106 9.3587ZM2.74471 14.5621V11.3631C2.74471 11.2422 2.64671 11.1441 2.52576 11.1441C2.40481 11.1441 2.3068 11.2422 2.3068 11.3631V14.5621H1.47484C1.45446 14.5621 1.43794 14.5455 1.43794 14.5252V11.0914C1.43794 10.3882 2.03048 10.1201 2.06885 10.1035L3.2051 9.66304L3.70288 10.6606C3.70288 10.6606 3.70288 10.6606 3.70291 10.6607C3.74767 10.7504 3.82915 10.8158 3.92642 10.8401C4.02256 10.8641 4.12541 10.8457 4.20805 10.787L4.2315 10.7704L4.3215 10.9059L3.83236 13.7959C3.83198 13.7981 3.83166 13.8003 3.83134 13.8025C3.81727 13.9044 3.84894 14.0094 3.91617 14.0835L4.35125 14.5621H2.74471V14.5621ZM4.27184 13.8236L4.73687 11.0758H4.95463L5.41969 13.8236L4.84577 14.455L4.27184 13.8236ZM8.25464 14.5252C8.25464 14.5455 8.23812 14.5621 8.21777 14.5621H7.38586V11.3631C7.38586 11.2422 7.28786 11.1441 7.16691 11.1441C7.04596 11.1441 6.94796 11.2422 6.94796 11.3631V14.5621H5.34025L5.77538 14.0834C5.84259 14.0095 5.87427 13.9044 5.86016 13.8025C5.85984 13.8003 5.85952 13.7981 5.85914 13.7959L5.37 10.9059L5.46 10.7704L5.48345 10.787C5.54204 10.8286 5.6114 10.8504 5.68179 10.8504C5.81021 10.8504 5.92982 10.7784 5.98862 10.6607V10.6606L6.48634 9.66307L7.6233 10.1034C7.95471 10.2476 8.25461 10.6193 8.25461 11.0914V14.5252H8.25464ZM8.47363 10.2958C8.38292 10.1496 8.26218 10.0144 8.11662 9.89902L8.36421 8.43614H8.58197L8.82968 9.89978C8.68023 10.0184 8.56106 10.1549 8.47363 10.2958ZM9.99936 14.5621V11.3631C9.99936 11.2422 9.90135 11.1441 9.7804 11.1441C9.65945 11.1441 9.56145 11.2422 9.56145 11.3631V14.5621H8.72951C8.70916 14.5621 8.69261 14.5455 8.69261 14.5252V11.0914C8.69261 10.8311 8.77424 10.5914 8.94811 10.39C9.06404 10.257 9.21781 10.1494 9.32355 10.1035L10.4598 9.66301L10.9576 10.6606C10.9576 10.6606 10.9576 10.6606 10.9576 10.6607C11.0024 10.7504 11.0839 10.8158 11.1811 10.8401C11.2772 10.8641 11.3801 10.8457 11.4627 10.787L11.4862 10.7704L11.5762 10.9059L11.087 13.7959C11.0867 13.7981 11.0863 13.8003 11.086 13.8025C11.0719 13.9044 11.1036 14.0094 11.1708 14.0835L11.6059 14.5621H9.99936V14.5621ZM11.5265 13.8236L11.9915 11.0759H12.2093L12.6744 13.8236L12.1004 14.455L11.5265 13.8236Z" fill="#666666" stroke="#666666" stroke-width="0.2"/>
</svg>
