<svg width="63" height="19" viewBox="0 0 63 19" fill="none" xmlns="http://www.w3.org/2000/svg">
<path d="M23.1 18.6006L26.3 0.600586H31.3L28.2 18.6006H23.1Z" fill="#0057A0"/>
<path d="M46.3001 0.799999C45.3001 0.399999 43.7001 0 41.7001 0C36.7001 0 33.1001 2.5 33.1001 6.1C33.1001 8.8 35.6001 10.2 37.6001 11.1C39.6001 12 40.2001 12.6 40.2001 13.4C40.2001 14.6 38.6001 15.2 37.2001 15.2C35.2001 15.2 34.1001 14.9 32.4001 14.2L31.7001 13.9L31.0001 18C32.2001 18.5 34.4001 19 36.7001 19C42.0001 19 45.5001 16.5 45.5001 12.7C45.5001 10.6 44.2001 9 41.2001 7.7C39.4001 6.8 38.3001 6.3 38.3001 5.4C38.3001 4.6 39.2001 3.8 41.2001 3.8C42.9001 3.8 44.1001 4.1 45.0001 4.5L45.5001 4.7L46.3001 0.799999Z" fill="#0057A0"/>
<path d="M54.9002 0.600586C53.7002 0.600586 52.8002 0.700587 52.3002 1.90059L44.8002 18.6006H50.2002L51.2002 15.6006H57.6002L58.2002 18.6006H63.0002L58.8002 0.600586H54.9002V0.600586ZM52.6002 12.6006C52.9002 11.7006 54.6002 7.30059 54.6002 7.30059C54.6002 7.30059 55.0002 6.20059 55.3002 5.50059L55.6002 7.20059C55.6002 7.20059 56.6002 11.7006 56.8002 12.7006H52.6002V12.6006Z" fill="#0057A0"/>
<path d="M13.9 13.2007L13.4 10.6007C12.5 7.60068 9.60002 4.30068 6.40002 2.70068L10.9 18.7007H16.3L24.4 0.700684H19L13.9 13.2007Z" fill="#0057A0"/>
<path d="M0 0.600586L0.9 0.800587C7.3 2.30059 11.7 6.10059 13.4 10.6006L11.6 2.10059C11.3 0.900586 10.4 0.600586 9.3 0.600586H0V0.600586Z" fill="#FAA61A"/>
</svg>
